<svg width="510" height="384" viewBox="0 0 510 384" fill="none" xmlns="http://www.w3.org/2000/svg">
<rect width="510" height="384" fill="white"/>
<rect x="7" y="8" width="176" height="96" rx="6" fill="#BDE3FF"/>
<path d="M68.907 41.9091H73.3104V61.0426C73.3104 63.0786 72.8322 64.8826 71.8758 66.4545C70.9193 68.017 69.5746 69.2481 67.8417 70.1477C66.1087 71.0379 64.0775 71.483 61.7479 71.483C59.4278 71.483 57.4013 71.0379 55.6684 70.1477C53.9354 69.2481 52.5907 68.017 51.6343 66.4545C50.6778 64.8826 50.1996 63.0786 50.1996 61.0426V41.9091H54.5888V60.6875C54.5888 62.0038 54.8776 63.1733 55.4553 64.196C56.0424 65.2188 56.871 66.0237 57.9411 66.6108C59.0112 67.1884 60.2801 67.4773 61.7479 67.4773C63.2252 67.4773 64.4989 67.1884 65.5689 66.6108C66.6485 66.0237 67.4723 65.2188 68.0405 64.196C68.6182 63.1733 68.907 62.0038 68.907 60.6875V41.9091ZM97.5192 41.9091H101.923V61.0426C101.923 63.0786 101.444 64.8826 100.488 66.4545C99.5315 68.017 98.1868 69.2481 96.4539 70.1477C94.7209 71.0379 92.6896 71.483 90.3601 71.483C88.04 71.483 86.0135 71.0379 84.2806 70.1477C82.5476 69.2481 81.2029 68.017 80.2465 66.4545C79.29 64.8826 78.8118 63.0786 78.8118 61.0426V41.9091H83.201V60.6875C83.201 62.0038 83.4898 63.1733 84.0675 64.196C84.6546 65.2188 85.4832 66.0237 86.5533 66.6108C87.6234 67.1884 88.8923 67.4773 90.3601 67.4773C91.8374 67.4773 93.111 67.1884 94.1811 66.6108C95.2607 66.0237 96.0845 65.2188 96.6527 64.196C97.2304 63.1733 97.5192 62.0038 97.5192 60.6875V41.9091ZM111.813 41.9091V71H107.424V41.9091H111.813ZM126.743 71H117.325V41.9091H127.041C129.892 41.9091 132.339 42.4915 134.385 43.6562C136.43 44.8116 137.998 46.4735 139.087 48.642C140.185 50.8011 140.734 53.3911 140.734 56.4119C140.734 59.4422 140.18 62.0464 139.072 64.2244C137.974 66.4025 136.383 68.0786 134.3 69.2528C132.216 70.4176 129.697 71 126.743 71ZM121.714 67.1648H126.501C128.717 67.1648 130.559 66.7481 132.027 65.9148C133.495 65.072 134.593 63.8551 135.322 62.2642C136.052 60.6638 136.416 58.7131 136.416 56.4119C136.416 54.1297 136.052 52.1932 135.322 50.6023C134.603 49.0114 133.528 47.804 132.098 46.9801C130.668 46.1562 128.892 45.7443 126.771 45.7443H121.714V67.1648Z" fill="black" fill-opacity="0.8"/>
<rect x="327" y="8" width="176" height="96" rx="6" fill="#BDE3FF"/>
<path d="M376.786 49.1818V52.5909H364.457V49.1818H376.786ZM367.837 71V46.6534C367.837 45.2898 368.136 44.1581 368.732 43.2585C369.329 42.3494 370.12 41.6723 371.104 41.2273C372.089 40.7727 373.159 40.5455 374.315 40.5455C375.167 40.5455 375.896 40.6165 376.502 40.7585C377.108 40.8911 377.558 41.0142 377.852 41.1278L376.857 44.5653C376.658 44.5085 376.403 44.4422 376.09 44.3665C375.778 44.2812 375.399 44.2386 374.954 44.2386C373.922 44.2386 373.183 44.4943 372.738 45.0057C372.302 45.517 372.085 46.2557 372.085 47.2216V71H367.837ZM384.536 41.9091V71H380.288V41.9091H384.536ZM403.19 61.9517V49.1818H407.452V71H403.276V67.2216H403.048C402.546 68.3864 401.741 69.357 400.634 70.1335C399.535 70.9006 398.167 71.2841 396.528 71.2841C395.127 71.2841 393.886 70.9763 392.807 70.3608C391.737 69.7358 390.894 68.8125 390.278 67.5909C389.672 66.3693 389.369 64.8589 389.369 63.0597V49.1818H393.616V62.5483C393.616 64.035 394.028 65.2187 394.852 66.0994C395.676 66.9801 396.746 67.4205 398.063 67.4205C398.858 67.4205 399.649 67.2216 400.435 66.8239C401.23 66.4261 401.888 65.8248 402.409 65.0199C402.939 64.215 403.2 63.1922 403.19 61.9517ZM426.099 61.9517V49.1818H430.361V71H426.185V67.2216H425.957C425.455 68.3864 424.651 69.357 423.543 70.1335C422.444 70.9006 421.076 71.2841 419.437 71.2841C418.036 71.2841 416.795 70.9763 415.716 70.3608C414.646 69.7358 413.803 68.8125 413.187 67.5909C412.581 66.3693 412.278 64.8589 412.278 63.0597V49.1818H416.526V62.5483C416.526 64.035 416.937 65.2187 417.761 66.0994C418.585 66.9801 419.655 67.4205 420.972 67.4205C421.767 67.4205 422.558 67.2216 423.344 66.8239C424.139 66.4261 424.797 65.8248 425.318 65.0199C425.848 64.215 426.109 63.1922 426.099 61.9517ZM435.187 71V49.1818H439.435V71H435.187ZM437.332 45.8153C436.594 45.8153 435.959 45.5691 435.429 45.0767C434.908 44.5748 434.648 43.9782 434.648 43.2869C434.648 42.5862 434.908 41.9896 435.429 41.4972C435.959 40.9953 436.594 40.7443 437.332 40.7443C438.071 40.7443 438.701 40.9953 439.222 41.4972C439.752 41.9896 440.017 42.5862 440.017 43.2869C440.017 43.9782 439.752 44.5748 439.222 45.0767C438.701 45.5691 438.071 45.8153 437.332 45.8153ZM452.436 71.4261C450.675 71.4261 449.103 70.9763 447.72 70.0767C446.347 69.1676 445.267 67.875 444.481 66.1989C443.705 64.5133 443.317 62.4915 443.317 60.1335C443.317 57.7756 443.71 55.7585 444.496 54.0824C445.291 52.4062 446.38 51.1231 447.763 50.233C449.145 49.3428 450.713 48.8977 452.464 48.8977C453.819 48.8977 454.908 49.125 455.731 49.5795C456.565 50.0246 457.209 50.5455 457.663 51.142C458.127 51.7386 458.487 52.2642 458.743 52.7188H458.999V41.9091H463.246V71H459.098V67.6051H458.743C458.487 68.0691 458.118 68.5994 457.635 69.196C457.161 69.7926 456.508 70.3134 455.675 70.7585C454.841 71.2036 453.762 71.4261 452.436 71.4261ZM453.374 67.804C454.595 67.804 455.627 67.482 456.47 66.8381C457.322 66.1847 457.966 65.2803 458.402 64.125C458.847 62.9697 459.07 61.625 459.07 60.0909C459.07 58.5758 458.852 57.25 458.416 56.1136C457.981 54.9773 457.341 54.0919 456.499 53.4574C455.656 52.8229 454.614 52.5057 453.374 52.5057C452.095 52.5057 451.03 52.8371 450.177 53.5C449.325 54.1629 448.681 55.0672 448.246 56.2131C447.82 57.3589 447.606 58.6515 447.606 60.0909C447.606 61.5492 447.824 62.8608 448.26 64.0256C448.695 65.1903 449.339 66.1136 450.192 66.7955C451.053 67.4678 452.114 67.804 453.374 67.804Z" fill="black" fill-opacity="0.8"/>
<path d="M185.939 54.9393C185.354 55.5251 185.354 56.4749 185.939 57.0607L195.485 66.6066C196.071 67.1924 197.021 67.1924 197.607 66.6066C198.192 66.0208 198.192 65.0711 197.607 64.4853L189.121 56L197.607 47.5147C198.192 46.9289 198.192 45.9792 197.607 45.3934C197.021 44.8076 196.071 44.8076 195.485 45.3934L185.939 54.9393ZM324.061 57.0607C324.646 56.4749 324.646 55.5251 324.061 54.9393L314.515 45.3934C313.929 44.8076 312.979 44.8076 312.393 45.3934C311.808 45.9792 311.808 46.9289 312.393 47.5147L320.879 56L312.393 64.4853C311.808 65.0711 311.808 66.0208 312.393 66.6066C312.979 67.1924 313.929 67.1924 314.515 66.6066L324.061 57.0607ZM187 57.5H323V54.5H187V57.5Z" fill="#B3B3B3"/>
<rect x="167" y="280" width="176" height="96" rx="6" fill="#FCD19C"/>
<path d="M227.804 321.551C227.653 320.206 227.028 319.165 225.929 318.426C224.831 317.678 223.448 317.304 221.782 317.304C220.588 317.304 219.556 317.493 218.685 317.872C217.814 318.241 217.137 318.753 216.654 319.406C216.18 320.05 215.944 320.784 215.944 321.608C215.944 322.299 216.105 322.896 216.427 323.398C216.758 323.9 217.189 324.321 217.719 324.662C218.259 324.993 218.837 325.273 219.452 325.5C220.068 325.718 220.659 325.898 221.228 326.04L224.069 326.778C224.997 327.006 225.948 327.313 226.924 327.702C227.899 328.09 228.803 328.601 229.637 329.236C230.47 329.87 231.142 330.656 231.654 331.594C232.175 332.531 232.435 333.653 232.435 334.96C232.435 336.608 232.009 338.071 231.157 339.349C230.314 340.628 229.088 341.636 227.478 342.375C225.877 343.114 223.941 343.483 221.668 343.483C219.49 343.483 217.606 343.137 216.015 342.446C214.424 341.755 213.178 340.775 212.279 339.506C211.379 338.227 210.882 336.712 210.787 334.96H215.191C215.276 336.011 215.617 336.887 216.213 337.588C216.82 338.279 217.591 338.795 218.529 339.136C219.476 339.468 220.513 339.634 221.64 339.634C222.88 339.634 223.983 339.439 224.949 339.051C225.925 338.653 226.692 338.104 227.25 337.403C227.809 336.693 228.088 335.865 228.088 334.918C228.088 334.056 227.842 333.35 227.35 332.801C226.867 332.252 226.209 331.797 225.375 331.438C224.552 331.078 223.619 330.76 222.577 330.486L219.14 329.548C216.81 328.914 214.963 327.981 213.6 326.75C212.246 325.519 211.569 323.89 211.569 321.864C211.569 320.187 212.023 318.724 212.932 317.474C213.841 316.224 215.072 315.254 216.625 314.562C218.178 313.862 219.93 313.511 221.881 313.511C223.851 313.511 225.588 313.857 227.094 314.548C228.609 315.24 229.802 316.191 230.674 317.403C231.545 318.606 231.999 319.989 232.037 321.551H227.804ZM236.459 343V321.182H240.536V324.733H240.806C241.26 323.53 242.004 322.593 243.036 321.92C244.068 321.239 245.304 320.898 246.743 320.898C248.202 320.898 249.423 321.239 250.408 321.92C251.402 322.602 252.136 323.54 252.61 324.733H252.837C253.358 323.568 254.186 322.64 255.323 321.949C256.459 321.248 257.813 320.898 259.385 320.898C261.364 320.898 262.979 321.518 264.229 322.759C265.489 323.999 266.118 325.869 266.118 328.369V343H261.871V328.767C261.871 327.29 261.469 326.22 260.664 325.557C259.859 324.894 258.898 324.562 257.78 324.562C256.398 324.562 255.323 324.989 254.556 325.841C253.789 326.684 253.405 327.768 253.405 329.094V343H249.172V328.497C249.172 327.313 248.803 326.362 248.064 325.642C247.326 324.922 246.364 324.562 245.181 324.562C244.376 324.562 243.632 324.776 242.951 325.202C242.278 325.618 241.734 326.201 241.317 326.949C240.91 327.697 240.706 328.563 240.706 329.548V343H236.459ZM280.121 343.44C278.076 343.44 276.291 342.972 274.766 342.034C273.241 341.097 272.058 339.785 271.215 338.099C270.372 336.414 269.951 334.444 269.951 332.19C269.951 329.927 270.372 327.948 271.215 326.253C272.058 324.558 273.241 323.241 274.766 322.304C276.291 321.366 278.076 320.898 280.121 320.898C282.167 320.898 283.952 321.366 285.476 322.304C287.001 323.241 288.185 324.558 289.027 326.253C289.87 327.948 290.292 329.927 290.292 332.19C290.292 334.444 289.87 336.414 289.027 338.099C288.185 339.785 287.001 341.097 285.476 342.034C283.952 342.972 282.167 343.44 280.121 343.44ZM280.135 339.875C281.461 339.875 282.56 339.525 283.431 338.824C284.302 338.123 284.946 337.19 285.363 336.026C285.789 334.861 286.002 333.578 286.002 332.176C286.002 330.784 285.789 329.506 285.363 328.341C284.946 327.167 284.302 326.224 283.431 325.514C282.56 324.804 281.461 324.449 280.135 324.449C278.8 324.449 277.692 324.804 276.811 325.514C275.94 326.224 275.292 327.167 274.865 328.341C274.449 329.506 274.24 330.784 274.24 332.176C274.24 333.578 274.449 334.861 274.865 336.026C275.292 337.19 275.94 338.123 276.811 338.824C277.692 339.525 278.8 339.875 280.135 339.875ZM298.399 313.909V343H294.152V313.909H298.399Z" fill="black" fill-opacity="0.8"/>
<path d="M416.5 108C416.5 107.172 415.828 106.5 415 106.5C414.172 106.5 413.5 107.172 413.5 108H416.5ZM413.5 198C413.5 198.828 414.172 199.5 415 199.5C415.828 199.5 416.5 198.828 416.5 198H413.5ZM416.5 238C416.5 237.172 415.828 236.5 415 236.5C414.172 236.5 413.5 237.172 413.5 238H416.5ZM345.939 326.939C345.354 327.525 345.354 328.475 345.939 329.061L355.485 338.607C356.071 339.192 357.021 339.192 357.607 338.607C358.192 338.021 358.192 337.071 357.607 336.485L349.121 328L357.607 319.515C358.192 318.929 358.192 317.979 357.607 317.393C357.021 316.808 356.071 316.808 355.485 317.393L345.939 326.939ZM413.5 108V198H416.5V108H413.5ZM413.5 238V304H416.5V238H413.5ZM391 326.5H347V329.5H391V326.5ZM413.5 304C413.5 316.426 403.426 326.5 391 326.5V329.5C405.083 329.5 416.5 318.083 416.5 304H413.5Z" fill="#B3B3B3"/>
<path d="M396.949 224V212.364H398.704V217.42H404.505V212.364H406.267V224H404.505V218.926H398.704V224H396.949ZM411.051 224.193C410.498 224.193 409.998 224.091 409.551 223.886C409.104 223.678 408.75 223.377 408.489 222.983C408.231 222.589 408.102 222.106 408.102 221.534C408.102 221.042 408.197 220.636 408.386 220.318C408.576 220 408.831 219.748 409.153 219.562C409.475 219.377 409.835 219.237 410.233 219.142C410.631 219.047 411.036 218.975 411.449 218.926C411.972 218.866 412.396 218.816 412.722 218.778C413.047 218.737 413.284 218.67 413.432 218.58C413.579 218.489 413.653 218.341 413.653 218.136V218.097C413.653 217.6 413.513 217.216 413.233 216.943C412.956 216.67 412.543 216.534 411.994 216.534C411.422 216.534 410.972 216.661 410.642 216.915C410.316 217.165 410.091 217.443 409.966 217.75L408.369 217.386C408.559 216.856 408.835 216.428 409.199 216.102C409.566 215.773 409.989 215.534 410.466 215.386C410.943 215.235 411.445 215.159 411.972 215.159C412.32 215.159 412.689 215.201 413.079 215.284C413.473 215.364 413.841 215.511 414.182 215.727C414.526 215.943 414.809 216.252 415.028 216.653C415.248 217.051 415.358 217.568 415.358 218.205V224H413.699V222.807H413.631C413.521 223.027 413.356 223.242 413.136 223.455C412.917 223.667 412.634 223.843 412.29 223.983C411.945 224.123 411.532 224.193 411.051 224.193ZM411.42 222.83C411.89 222.83 412.292 222.737 412.625 222.551C412.962 222.366 413.218 222.123 413.392 221.824C413.57 221.521 413.659 221.197 413.659 220.852V219.727C413.598 219.788 413.481 219.845 413.307 219.898C413.136 219.947 412.941 219.991 412.722 220.028C412.502 220.062 412.288 220.095 412.079 220.125C411.871 220.152 411.697 220.174 411.557 220.193C411.227 220.235 410.926 220.305 410.653 220.403C410.384 220.502 410.168 220.644 410.006 220.83C409.847 221.011 409.767 221.254 409.767 221.557C409.767 221.977 409.922 222.295 410.233 222.511C410.543 222.723 410.939 222.83 411.42 222.83ZM423.984 217.403L422.445 217.676C422.38 217.479 422.278 217.292 422.138 217.114C422.001 216.936 421.816 216.79 421.581 216.676C421.346 216.562 421.053 216.506 420.7 216.506C420.219 216.506 419.818 216.614 419.496 216.83C419.174 217.042 419.013 217.316 419.013 217.653C419.013 217.945 419.121 218.18 419.337 218.358C419.553 218.536 419.901 218.682 420.382 218.795L421.769 219.114C422.572 219.299 423.17 219.585 423.564 219.972C423.958 220.358 424.155 220.86 424.155 221.477C424.155 222 424.003 222.466 423.7 222.875C423.401 223.28 422.983 223.598 422.445 223.83C421.911 224.061 421.291 224.176 420.587 224.176C419.609 224.176 418.812 223.968 418.195 223.551C417.577 223.131 417.198 222.534 417.058 221.761L418.7 221.511C418.803 221.939 419.013 222.263 419.331 222.483C419.649 222.699 420.064 222.807 420.575 222.807C421.132 222.807 421.577 222.691 421.911 222.46C422.244 222.225 422.411 221.939 422.411 221.602C422.411 221.33 422.308 221.1 422.104 220.915C421.903 220.729 421.594 220.589 421.178 220.494L419.7 220.17C418.886 219.985 418.284 219.689 417.894 219.284C417.507 218.879 417.314 218.366 417.314 217.744C417.314 217.229 417.458 216.778 417.746 216.392C418.034 216.006 418.431 215.705 418.939 215.489C419.447 215.269 420.028 215.159 420.683 215.159C421.626 215.159 422.369 215.364 422.911 215.773C423.452 216.178 423.81 216.722 423.984 217.403ZM427.546 218.818V224H425.847V212.364H427.523V216.693H427.631C427.835 216.223 428.148 215.85 428.568 215.574C428.989 215.297 429.538 215.159 430.216 215.159C430.815 215.159 431.337 215.282 431.784 215.528C432.235 215.775 432.584 216.142 432.83 216.631C433.08 217.116 433.205 217.722 433.205 218.449V224H431.506V218.653C431.506 218.013 431.341 217.517 431.012 217.165C430.682 216.809 430.224 216.631 429.637 216.631C429.235 216.631 428.875 216.716 428.557 216.886C428.243 217.057 427.995 217.307 427.813 217.636C427.635 217.962 427.546 218.356 427.546 218.818Z" fill="black" fill-opacity="0.8"/>
<path d="M96.5 108C96.5 107.172 95.8284 106.5 95 106.5C94.1716 106.5 93.5 107.172 93.5 108H96.5ZM93.5 198C93.5 198.828 94.1716 199.5 95 199.5C95.8284 199.5 96.5 198.828 96.5 198H93.5ZM96.5 238C96.5 237.172 95.8284 236.5 95 236.5C94.1716 236.5 93.5 237.172 93.5 238H96.5ZM164.061 329.061C164.646 328.475 164.646 327.525 164.061 326.939L154.515 317.393C153.929 316.808 152.979 316.808 152.393 317.393C151.808 317.979 151.808 318.929 152.393 319.515L160.879 328L152.393 336.485C151.808 337.071 151.808 338.021 152.393 338.607C152.979 339.192 153.929 339.192 154.515 338.607L164.061 329.061ZM93.5 108V198H96.5V108H93.5ZM93.5 238V304H96.5V238H93.5ZM119 329.5H163V326.5H119V329.5ZM93.5 304C93.5 318.083 104.917 329.5 119 329.5V326.5C106.574 326.5 96.5 316.426 96.5 304H93.5Z" fill="#B3B3B3"/>
<path d="M76.9487 224V212.364H78.7043V217.42H84.5055V212.364H86.2668V224H84.5055V218.926H78.7043V224H76.9487ZM91.0511 224.193C90.498 224.193 89.998 224.091 89.5511 223.886C89.1041 223.678 88.7499 223.377 88.4886 222.983C88.231 222.589 88.1022 222.106 88.1022 221.534C88.1022 221.042 88.1969 220.636 88.3863 220.318C88.5757 220 88.8314 219.748 89.1533 219.562C89.4753 219.377 89.8352 219.237 90.2329 219.142C90.6306 219.047 91.0359 218.975 91.4488 218.926C91.9715 218.866 92.3958 218.816 92.7215 218.778C93.0473 218.737 93.284 218.67 93.4318 218.58C93.5795 218.489 93.6533 218.341 93.6533 218.136V218.097C93.6533 217.6 93.5132 217.216 93.2329 216.943C92.9564 216.67 92.5435 216.534 91.9943 216.534C91.4223 216.534 90.9715 216.661 90.642 216.915C90.3162 217.165 90.0908 217.443 89.9658 217.75L88.3693 217.386C88.5586 216.856 88.8352 216.428 89.1988 216.102C89.5662 215.773 89.9886 215.534 90.4658 215.386C90.9431 215.235 91.445 215.159 91.9715 215.159C92.32 215.159 92.6893 215.201 93.0795 215.284C93.4734 215.364 93.8408 215.511 94.1818 215.727C94.5264 215.943 94.8086 216.252 95.0283 216.653C95.248 217.051 95.3579 217.568 95.3579 218.205V224H93.6988V222.807H93.6306C93.5208 223.027 93.356 223.242 93.1363 223.455C92.9166 223.667 92.6344 223.843 92.2897 223.983C91.945 224.123 91.5321 224.193 91.0511 224.193ZM91.4204 222.83C91.8901 222.83 92.2916 222.737 92.6249 222.551C92.9621 222.366 93.2177 222.123 93.392 221.824C93.57 221.521 93.659 221.197 93.659 220.852V219.727C93.5984 219.788 93.481 219.845 93.3068 219.898C93.1363 219.947 92.9412 219.991 92.7215 220.028C92.5018 220.062 92.2878 220.095 92.0795 220.125C91.8711 220.152 91.6969 220.174 91.5568 220.193C91.2272 220.235 90.9261 220.305 90.6533 220.403C90.3844 220.502 90.1685 220.644 90.0056 220.83C89.8465 221.011 89.767 221.254 89.767 221.557C89.767 221.977 89.9223 222.295 90.2329 222.511C90.5435 222.723 90.9393 222.83 91.4204 222.83ZM103.984 217.403L102.445 217.676C102.38 217.479 102.278 217.292 102.138 217.114C102.001 216.936 101.816 216.79 101.581 216.676C101.346 216.562 101.053 216.506 100.7 216.506C100.219 216.506 99.8178 216.614 99.4958 216.83C99.1738 217.042 99.0129 217.316 99.0129 217.653C99.0129 217.945 99.1208 218.18 99.3367 218.358C99.5526 218.536 99.9011 218.682 100.382 218.795L101.769 219.114C102.572 219.299 103.17 219.585 103.564 219.972C103.958 220.358 104.155 220.86 104.155 221.477C104.155 222 104.003 222.466 103.7 222.875C103.401 223.28 102.983 223.598 102.445 223.83C101.911 224.061 101.291 224.176 100.587 224.176C99.6094 224.176 98.8121 223.968 98.1947 223.551C97.5772 223.131 97.1985 222.534 97.0583 221.761L98.7004 221.511C98.8026 221.939 99.0129 222.263 99.331 222.483C99.6492 222.699 100.064 222.807 100.575 222.807C101.132 222.807 101.577 222.691 101.911 222.46C102.244 222.225 102.411 221.939 102.411 221.602C102.411 221.33 102.308 221.1 102.104 220.915C101.903 220.729 101.594 220.589 101.178 220.494L99.7004 220.17C98.886 219.985 98.2837 219.689 97.8935 219.284C97.5072 218.879 97.314 218.366 97.314 217.744C97.314 217.229 97.4579 216.778 97.7458 216.392C98.0337 216.006 98.4314 215.705 98.939 215.489C99.4466 215.269 100.028 215.159 100.683 215.159C101.626 215.159 102.369 215.364 102.911 215.773C103.452 216.178 103.81 216.722 103.984 217.403ZM107.546 218.818V224H105.847V212.364H107.523V216.693H107.631C107.835 216.223 108.148 215.85 108.568 215.574C108.989 215.297 109.538 215.159 110.216 215.159C110.815 215.159 111.337 215.282 111.784 215.528C112.235 215.775 112.584 216.142 112.83 216.631C113.08 217.116 113.205 217.722 113.205 218.449V224H111.506V218.653C111.506 218.013 111.341 217.517 111.012 217.165C110.682 216.809 110.224 216.631 109.637 216.631C109.235 216.631 108.875 216.716 108.557 216.886C108.243 217.057 107.995 217.307 107.813 217.636C107.635 217.962 107.546 218.356 107.546 218.818Z" fill="black" fill-opacity="0.8"/>
<rect x="167" y="128" width="176" height="128" rx="6" fill="#E6E6E6"/>
<rect x="183" y="153" width="32" height="32" rx="3" fill="#BDE3FF"/>
<path d="M246.96 160.818V178.273H244.318V163.46H244.216L240.04 166.188V163.665L244.395 160.818H246.96ZM251.418 178.273V176.364L257.324 170.244C257.955 169.58 258.475 168.997 258.884 168.497C259.299 167.991 259.608 167.511 259.813 167.057C260.017 166.602 260.12 166.119 260.12 165.608C260.12 165.028 259.983 164.528 259.711 164.108C259.438 163.682 259.066 163.355 258.594 163.128C258.122 162.895 257.591 162.778 257 162.778C256.375 162.778 255.83 162.906 255.364 163.162C254.898 163.418 254.54 163.778 254.29 164.244C254.04 164.71 253.915 165.256 253.915 165.881H251.401C251.401 164.818 251.645 163.889 252.134 163.094C252.622 162.298 253.293 161.682 254.145 161.244C254.997 160.801 255.966 160.58 257.051 160.58C258.148 160.58 259.114 160.798 259.949 161.236C260.79 161.668 261.446 162.259 261.918 163.009C262.39 163.753 262.625 164.594 262.625 165.531C262.625 166.179 262.503 166.813 262.259 167.432C262.02 168.051 261.603 168.741 261.006 169.503C260.409 170.259 259.58 171.176 258.517 172.256L255.049 175.886V176.014H262.907V178.273H251.418ZM271.77 178.511C270.549 178.511 269.469 178.301 268.532 177.881C267.6 177.46 266.87 176.881 266.341 176.142C265.813 175.403 265.552 174.563 265.557 173.619C265.552 172.881 265.702 172.202 266.009 171.582C266.322 170.957 266.745 170.438 267.279 170.023C267.813 169.602 268.41 169.335 269.069 169.222V169.119C268.199 168.909 267.503 168.443 266.981 167.722C266.458 167 266.199 166.17 266.205 165.233C266.199 164.341 266.435 163.545 266.912 162.847C267.395 162.142 268.057 161.588 268.898 161.185C269.739 160.781 270.697 160.58 271.77 160.58C272.833 160.58 273.782 160.784 274.617 161.193C275.458 161.597 276.12 162.151 276.603 162.855C277.086 163.554 277.33 164.347 277.336 165.233C277.33 166.17 277.063 167 276.535 167.722C276.006 168.443 275.319 168.909 274.472 169.119V169.222C275.126 169.335 275.714 169.602 276.236 170.023C276.765 170.438 277.185 170.957 277.498 171.582C277.816 172.202 277.978 172.881 277.983 173.619C277.978 174.563 277.711 175.403 277.182 176.142C276.654 176.881 275.921 177.46 274.983 177.881C274.052 178.301 272.981 178.511 271.77 178.511ZM271.77 176.355C272.492 176.355 273.117 176.236 273.645 175.997C274.174 175.753 274.583 175.415 274.873 174.983C275.162 174.545 275.31 174.034 275.316 173.449C275.31 172.841 275.151 172.304 274.839 171.838C274.532 171.372 274.114 171.006 273.586 170.739C273.057 170.472 272.452 170.338 271.77 170.338C271.083 170.338 270.472 170.472 269.938 170.739C269.404 171.006 268.983 171.372 268.677 171.838C268.37 172.304 268.219 172.841 268.225 173.449C268.219 174.034 268.358 174.545 268.643 174.983C268.932 175.415 269.344 175.753 269.878 175.997C270.412 176.236 271.043 176.355 271.77 176.355ZM271.77 168.233C272.35 168.233 272.864 168.116 273.313 167.884C273.762 167.651 274.114 167.327 274.37 166.912C274.631 166.497 274.765 166.011 274.77 165.455C274.765 164.909 274.634 164.432 274.378 164.023C274.128 163.614 273.779 163.298 273.33 163.077C272.881 162.849 272.361 162.736 271.77 162.736C271.168 162.736 270.64 162.849 270.185 163.077C269.736 163.298 269.387 163.614 269.137 164.023C268.887 164.432 268.765 164.909 268.77 165.455C268.765 166.011 268.89 166.497 269.145 166.912C269.401 167.327 269.753 167.651 270.202 167.884C270.657 168.116 271.179 168.233 271.77 168.233ZM288.52 169.793V172H280.781V169.793H288.52ZM291.857 178.273V160.818H294.405V167.304H294.558C294.706 167.031 294.919 166.716 295.198 166.358C295.476 166 295.862 165.688 296.357 165.42C296.851 165.148 297.504 165.011 298.317 165.011C299.374 165.011 300.317 165.278 301.147 165.813C301.976 166.347 302.627 167.116 303.098 168.122C303.575 169.128 303.814 170.338 303.814 171.753C303.814 173.168 303.578 174.381 303.107 175.392C302.635 176.398 301.987 177.173 301.164 177.719C300.34 178.259 299.399 178.528 298.343 178.528C297.547 178.528 296.897 178.395 296.391 178.128C295.891 177.861 295.499 177.548 295.215 177.19C294.931 176.832 294.712 176.514 294.558 176.236H294.345V178.273H291.857ZM294.354 171.727C294.354 172.648 294.487 173.455 294.754 174.148C295.022 174.841 295.408 175.384 295.914 175.776C296.419 176.162 297.039 176.355 297.772 176.355C298.533 176.355 299.169 176.153 299.681 175.75C300.192 175.341 300.578 174.787 300.84 174.088C301.107 173.389 301.24 172.602 301.24 171.727C301.24 170.864 301.11 170.088 300.848 169.401C300.593 168.713 300.206 168.17 299.689 167.773C299.178 167.375 298.539 167.176 297.772 167.176C297.033 167.176 296.408 167.366 295.897 167.747C295.391 168.128 295.007 168.659 294.746 169.341C294.485 170.023 294.354 170.818 294.354 171.727ZM306.412 178.273V165.182H308.96V178.273H306.412ZM307.699 163.162C307.255 163.162 306.875 163.014 306.557 162.719C306.244 162.418 306.088 162.06 306.088 161.645C306.088 161.224 306.244 160.866 306.557 160.571C306.875 160.27 307.255 160.119 307.699 160.119C308.142 160.119 308.52 160.27 308.832 160.571C309.15 160.866 309.309 161.224 309.309 161.645C309.309 162.06 309.15 162.418 308.832 162.719C308.52 163.014 308.142 163.162 307.699 163.162ZM318.235 165.182V167.227H311.084V165.182H318.235ZM313.002 162.045H315.55V174.429C315.55 174.923 315.624 175.295 315.772 175.545C315.92 175.79 316.11 175.957 316.343 176.048C316.582 176.134 316.84 176.176 317.119 176.176C317.323 176.176 317.502 176.162 317.655 176.134C317.809 176.105 317.928 176.082 318.013 176.065L318.474 178.17C318.326 178.227 318.116 178.284 317.843 178.341C317.57 178.403 317.229 178.438 316.82 178.443C316.15 178.455 315.525 178.335 314.945 178.085C314.366 177.835 313.897 177.449 313.539 176.926C313.181 176.403 313.002 175.747 313.002 174.957V162.045Z" fill="#1E1E1E"/>
<rect x="183" y="206" width="32" height="32" rx="3" fill="#FCD19C"/>
<path d="M251.802 231.511C250.632 231.511 249.586 231.31 248.666 230.906C247.751 230.503 247.027 229.943 246.493 229.227C245.964 228.506 245.68 227.67 245.64 226.722H248.317C248.351 227.239 248.524 227.688 248.836 228.068C249.155 228.443 249.569 228.733 250.081 228.938C250.592 229.142 251.16 229.244 251.785 229.244C252.473 229.244 253.081 229.125 253.609 228.886C254.143 228.648 254.561 228.315 254.862 227.889C255.163 227.457 255.314 226.96 255.314 226.398C255.314 225.813 255.163 225.298 254.862 224.855C254.567 224.406 254.132 224.054 253.558 223.798C252.99 223.543 252.302 223.415 251.496 223.415H250.021V221.267H251.496C252.143 221.267 252.711 221.151 253.2 220.918C253.694 220.685 254.081 220.361 254.359 219.946C254.638 219.526 254.777 219.034 254.777 218.472C254.777 217.932 254.655 217.463 254.41 217.065C254.172 216.662 253.831 216.347 253.388 216.119C252.95 215.892 252.433 215.778 251.836 215.778C251.268 215.778 250.737 215.884 250.243 216.094C249.754 216.298 249.356 216.594 249.05 216.98C248.743 217.361 248.578 217.818 248.555 218.352H246.007C246.035 217.409 246.314 216.58 246.842 215.864C247.376 215.148 248.081 214.588 248.956 214.185C249.831 213.781 250.802 213.58 251.871 213.58C252.99 213.58 253.956 213.798 254.768 214.236C255.586 214.668 256.217 215.244 256.66 215.966C257.109 216.688 257.331 217.477 257.325 218.335C257.331 219.313 257.058 220.142 256.507 220.824C255.961 221.506 255.234 221.963 254.325 222.196V222.332C255.484 222.509 256.382 222.969 257.018 223.713C257.66 224.457 257.979 225.381 257.973 226.483C257.979 227.443 257.711 228.304 257.172 229.065C256.638 229.827 255.908 230.426 254.981 230.864C254.055 231.295 252.996 231.511 251.802 231.511ZM260.93 231.273V229.364L266.837 223.244C267.467 222.58 267.987 221.997 268.396 221.497C268.811 220.991 269.121 220.511 269.325 220.057C269.53 219.602 269.632 219.119 269.632 218.608C269.632 218.028 269.496 217.528 269.223 217.108C268.95 216.682 268.578 216.355 268.107 216.128C267.635 215.895 267.104 215.778 266.513 215.778C265.888 215.778 265.342 215.906 264.876 216.162C264.411 216.418 264.053 216.778 263.803 217.244C263.553 217.71 263.428 218.256 263.428 218.881H260.913C260.913 217.818 261.158 216.889 261.646 216.094C262.135 215.298 262.805 214.682 263.658 214.244C264.51 213.801 265.479 213.58 266.564 213.58C267.661 213.58 268.626 213.798 269.462 214.236C270.303 214.668 270.959 215.259 271.43 216.009C271.902 216.753 272.138 217.594 272.138 218.531C272.138 219.179 272.016 219.813 271.771 220.432C271.533 221.051 271.115 221.741 270.519 222.503C269.922 223.259 269.092 224.176 268.03 225.256L264.561 228.886V229.014H272.419V231.273H260.93ZM283.132 222.793V225H275.394V222.793H283.132ZM286.469 231.273V213.818H289.018V220.304H289.171C289.319 220.031 289.532 219.716 289.81 219.358C290.089 219 290.475 218.688 290.969 218.42C291.464 218.148 292.117 218.011 292.929 218.011C293.986 218.011 294.929 218.278 295.759 218.813C296.589 219.347 297.239 220.116 297.711 221.122C298.188 222.128 298.427 223.338 298.427 224.753C298.427 226.168 298.191 227.381 297.719 228.392C297.248 229.398 296.6 230.173 295.776 230.719C294.952 231.259 294.012 231.528 292.955 231.528C292.16 231.528 291.509 231.395 291.003 231.128C290.503 230.861 290.111 230.548 289.827 230.19C289.543 229.832 289.324 229.514 289.171 229.236H288.958V231.273H286.469ZM288.966 224.727C288.966 225.648 289.1 226.455 289.367 227.148C289.634 227.841 290.02 228.384 290.526 228.776C291.032 229.162 291.651 229.355 292.384 229.355C293.145 229.355 293.782 229.153 294.293 228.75C294.804 228.341 295.191 227.787 295.452 227.088C295.719 226.389 295.853 225.602 295.853 224.727C295.853 223.864 295.722 223.088 295.461 222.401C295.205 221.713 294.819 221.17 294.302 220.773C293.79 220.375 293.151 220.176 292.384 220.176C291.645 220.176 291.02 220.366 290.509 220.747C290.003 221.128 289.62 221.659 289.358 222.341C289.097 223.023 288.966 223.818 288.966 224.727ZM301.024 231.273V218.182H303.572V231.273H301.024ZM302.311 216.162C301.868 216.162 301.487 216.014 301.169 215.719C300.856 215.418 300.7 215.06 300.7 214.645C300.7 214.224 300.856 213.866 301.169 213.571C301.487 213.27 301.868 213.119 302.311 213.119C302.754 213.119 303.132 213.27 303.445 213.571C303.763 213.866 303.922 214.224 303.922 214.645C303.922 215.06 303.763 215.418 303.445 215.719C303.132 216.014 302.754 216.162 302.311 216.162ZM312.847 218.182V220.227H305.697V218.182H312.847ZM307.614 215.045H310.163V227.429C310.163 227.923 310.237 228.295 310.384 228.545C310.532 228.79 310.722 228.957 310.955 229.048C311.194 229.134 311.453 229.176 311.731 229.176C311.936 229.176 312.114 229.162 312.268 229.134C312.421 229.105 312.541 229.082 312.626 229.065L313.086 231.17C312.938 231.227 312.728 231.284 312.455 231.341C312.183 231.403 311.842 231.438 311.433 231.443C310.762 231.455 310.137 231.335 309.558 231.085C308.978 230.835 308.509 230.449 308.151 229.926C307.793 229.403 307.614 228.747 307.614 227.957V215.045Z" fill="#1E1E1E"/>
</svg>
